<svg version="1.1" id="Layer_1" xmlns="http://www.w3.org/2000/svg" xmlns:xlink="http://www.w3.org/1999/xlink" x="0px" y="0px"
	 width="100%" viewBox="0 0 246 225" enable-background="new 0 0 246 225" xml:space="preserve">
<path fill="#000000" opacity="1.000000" stroke="none" 
	d="
M146.000000,226.000000 
	C97.333336,226.000000 49.166672,226.000000 1.000006,226.000000 
	C1.000004,151.000000 1.000004,76.000015 1.000002,1.000016 
	C82.999992,1.000011 164.999985,1.000011 246.999969,1.000005 
	C246.999985,75.999985 246.999985,150.999969 247.000000,225.999969 
	C213.500000,226.000000 180.000000,226.000000 146.000000,226.000000 
M51.961159,10.930966 
	C51.961159,10.930966 51.916164,10.862560 51.214890,10.962676 
	C47.552185,13.402557 44.568398,16.315826 44.071262,21.511417 
	C44.071262,21.511417 44.004799,21.989052 43.310192,22.381817 
	C40.890381,29.703690 41.168453,36.683876 45.975723,43.031971 
	C45.975723,43.031971 45.901634,43.050861 45.914848,43.768551 
	C47.268749,44.882290 48.622650,45.996029 50.342499,47.723244 
	C58.407833,54.809181 65.308525,49.231422 71.400925,44.828747 
	C74.370461,42.682812 75.816124,37.725842 76.800064,33.755913 
	C77.592850,30.557222 76.719490,26.925348 76.474754,23.493555 
	C75.746780,13.285398 64.958954,5.635493 54.290211,9.976307 
	C53.487148,10.288935 52.684082,10.601563 51.961159,10.930966 
M133.931259,212.988144 
	C144.821762,212.991577 155.712540,213.033096 166.602432,212.952591 
	C168.042648,212.941925 169.478271,212.309433 171.675949,211.913849 
	C173.441650,209.858215 176.325745,208.002121 176.735672,205.704605 
	C177.540802,201.191956 177.360138,196.390244 176.847168,191.790680 
	C176.420990,187.969391 174.495178,185.284164 169.593262,185.899643 
	C165.172348,186.454742 160.623001,185.899246 156.137711,186.051437 
	C150.490829,186.243057 146.310852,184.099716 143.961746,178.047516 
	C143.980255,146.483185 144.009308,114.918839 143.975769,83.354561 
	C143.974518,82.184486 143.362366,81.015068 142.679764,79.190216 
	C141.103409,78.467255 139.560883,77.220451 137.944565,77.116005 
	C132.278015,76.749840 126.561188,76.424820 120.915550,76.822937 
	C118.549522,76.989784 116.313919,79.006088 113.495354,80.105324 
	C113.295525,80.381851 113.095695,80.658379 112.998283,80.960487 
	C112.998283,80.960487 112.905350,80.909462 112.170815,81.267426 
	C111.785255,82.791359 111.075546,84.312920 111.064362,85.839600 
	C110.954170,100.882675 110.916260,115.926682 110.943642,130.970276 
	C110.980263,151.088654 111.093018,171.206894 110.579582,191.926834 
	C108.251884,191.950668 105.918373,192.090775 103.597649,191.974930 
	C98.251801,191.708099 94.251854,188.875122 94.030052,184.989929 
	C93.579102,177.090500 93.092377,169.179504 93.080498,161.272598 
	C93.069572,154.005951 93.962212,146.736664 93.919701,139.471680 
	C93.855186,128.446945 93.441650,117.418747 92.852905,106.409317 
	C92.776230,104.975540 91.036278,102.888260 89.625412,102.412537 
	C85.926582,101.165359 82.054939,101.666267 79.122963,104.481865 
	C69.996452,113.246117 61.964958,122.864586 57.033718,134.704514 
	C52.093822,146.565216 51.312782,158.987427 53.970383,171.305389 
	C55.673145,179.197678 58.240349,187.314529 62.351463,194.172974 
	C67.592865,202.917053 74.294235,211.151382 86.377022,212.843628 
	C101.920525,212.840149 117.464035,212.836670 133.931259,212.988144 
M210.020111,151.941406 
	C210.020111,151.941406 209.887497,151.953461 210.001694,152.896011 
	C210.001175,169.104660 209.976166,185.313416 210.040848,201.521805 
	C210.046814,203.018707 210.623535,204.513351 211.237900,206.667816 
	C215.363144,212.634521 226.166916,215.120438 233.674606,212.125778 
	C236.605164,210.956863 238.226898,209.311569 238.578308,205.912842 
	C238.671661,205.597763 238.765030,205.282669 238.987900,204.042267 
	C238.991806,164.854050 239.006241,125.665825 238.958923,86.477669 
	C238.957138,84.997337 238.357162,83.517715 237.918457,81.511787 
	C237.872864,81.338036 237.827271,81.164276 237.877502,80.486320 
	C237.606445,80.297340 237.335373,80.108353 236.962830,79.162857 
	C230.564499,72.222687 215.047195,75.089386 210.159714,84.385735 
	C210.095856,97.906555 210.031998,111.427376 209.226181,125.274376 
	C206.651993,125.476906 204.077362,125.840843 201.503723,125.833923 
	C199.200348,125.827736 196.892639,125.172775 194.596390,125.224922 
	C188.626053,125.360504 182.660904,125.937714 176.693787,125.936623 
	C171.776825,125.935722 166.859665,125.094673 161.943146,125.100227 
	C154.793350,125.108307 154.062378,126.022697 154.064819,132.919388 
	C154.066055,136.403290 153.699249,139.937561 154.173065,143.355606 
	C154.572205,146.235153 155.945770,148.979645 157.833481,151.975372 
	C175.233917,152.008163 192.634338,152.040955 210.020111,151.941406 
M26.991003,120.692032 
	C23.593365,132.767517 23.110321,145.201431 24.262817,157.478683 
	C25.032063,165.673264 27.810110,173.755829 30.314373,181.691223 
	C33.312794,191.192490 40.928688,197.636017 47.352856,204.691849 
	C50.948193,208.640717 55.752342,211.744308 62.804996,210.681427 
	C59.634281,205.312210 56.894409,200.445679 53.940830,195.712479 
	C44.005882,179.791397 41.940765,162.393097 45.404911,144.448990 
	C47.704571,132.536835 54.125824,121.948097 61.419510,112.555107 
	C74.516006,95.689133 92.289452,83.660454 108.472557,69.998787 
	C114.713699,64.730049 120.710464,58.987286 125.890884,52.696545 
	C131.499252,45.886147 136.291046,38.348049 140.930420,30.814167 
	C144.076248,25.705671 147.267059,20.227781 145.871323,13.803659 
	C145.508423,12.133389 143.401962,9.467440 142.324326,9.573572 
	C138.418777,9.958217 134.579468,10.446500 131.389526,13.920923 
	C123.650558,22.350088 115.798874,30.807623 107.066963,38.153419 
	C99.473740,44.541275 90.820518,49.776516 82.224159,54.819550 
	C77.881569,57.367126 72.521988,58.112434 67.809288,60.113209 
	C59.808907,63.509773 46.576000,60.998077 40.472370,55.020702 
	C33.099030,47.799873 28.602760,39.098896 25.933918,29.268429 
	C24.807106,25.117903 19.677361,21.597494 16.015186,22.659382 
	C11.863722,23.863142 10.769258,27.297667 11.008910,31.237455 
	C11.278500,35.669430 11.410468,40.131012 12.046377,44.515301 
	C13.649322,55.566860 18.708569,65.070732 25.326227,73.949944 
	C28.313272,77.957802 31.623508,82.283005 32.809029,86.965088 
	C35.742012,98.548592 30.649580,109.164635 26.991003,120.692032 
z"/>
<path fill="#F59B74" opacity="1.000000" stroke="none" 
	d="
M27.006329,120.270103 
	C30.649580,109.164635 35.742012,98.548592 32.809029,86.965088 
	C31.623508,82.283005 28.313272,77.957802 25.326227,73.949944 
	C18.708569,65.070732 13.649322,55.566860 12.046377,44.515301 
	C11.410468,40.131012 11.278500,35.669430 11.008910,31.237455 
	C10.769258,27.297667 11.863722,23.863142 16.015186,22.659382 
	C19.677361,21.597494 24.807106,25.117903 25.933918,29.268429 
	C28.602760,39.098896 33.099030,47.799873 40.472370,55.020702 
	C46.576000,60.998077 59.808907,63.509773 67.809288,60.113209 
	C72.521988,58.112434 77.881569,57.367126 82.224159,54.819550 
	C90.820518,49.776516 99.473740,44.541275 107.066963,38.153419 
	C115.798874,30.807623 123.650558,22.350088 131.389526,13.920923 
	C134.579468,10.446500 138.418777,9.958217 142.324326,9.573572 
	C143.401962,9.467440 145.508423,12.133389 145.871323,13.803659 
	C147.267059,20.227781 144.076248,25.705671 140.930420,30.814167 
	C136.291046,38.348049 131.499252,45.886147 125.890884,52.696545 
	C120.710464,58.987286 114.713699,64.730049 108.472557,69.998787 
	C92.289452,83.660454 74.516006,95.689133 61.419510,112.555107 
	C54.125824,121.948097 47.704571,132.536835 45.404911,144.448990 
	C41.940765,162.393097 44.005882,179.791397 53.940830,195.712479 
	C56.894409,200.445679 59.634281,205.312210 62.804996,210.681427 
	C55.752342,211.744308 50.948193,208.640717 47.352856,204.691849 
	C40.928688,197.636017 33.312794,191.192490 30.314373,181.691223 
	C27.810110,173.755829 25.032063,165.673264 24.262817,157.478683 
	C23.110321,145.201431 23.593365,132.767517 27.006329,120.270103 
z"/>
<path fill="#EE7E61" opacity="1.000000" stroke="none" 
	d="
M237.781662,80.990509 
	C237.827271,81.164276 237.872864,81.338036 237.961304,82.014328 
	C238.004150,82.516876 237.877243,82.979996 237.661499,83.335556 
	C237.290710,84.834793 237.000900,85.978371 237.000153,87.122147 
	C236.975555,124.849770 236.965454,162.577423 237.023911,200.304962 
	C237.026352,201.882843 237.706314,203.459686 238.031631,205.017990 
	C237.992630,204.998978 238.030396,204.920853 238.027954,205.221649 
	C238.045120,205.722015 238.064713,205.921600 238.084320,206.121170 
	C238.226898,209.311569 236.605164,210.956863 233.674606,212.125778 
	C226.166916,215.120438 215.363144,212.634521 211.108536,205.870422 
	C211.008926,188.910614 211.070862,172.748093 211.016586,156.585938 
	C211.011414,155.040527 210.281158,153.497559 209.887512,151.953461 
	C209.887497,151.953461 210.020111,151.941406 209.702667,151.741669 
	C208.750076,151.371658 208.115417,151.054626 207.479736,151.052612 
	C191.555923,151.002075 175.631989,150.970673 159.708191,150.996811 
	C158.767685,150.998352 157.828049,151.509766 156.888000,151.783920 
	C155.945770,148.979645 154.572205,146.235153 154.173065,143.355606 
	C153.699249,139.937561 154.066055,136.403290 154.064819,132.919388 
	C154.062378,126.022697 154.793350,125.108307 161.943146,125.100227 
	C166.859665,125.094673 171.776825,125.935722 176.693787,125.936623 
	C182.660904,125.937714 188.626053,125.360504 194.596390,125.224922 
	C196.892639,125.172775 199.200348,125.827736 201.503723,125.833923 
	C204.077362,125.840843 206.651993,125.476906 209.914490,124.838120 
	C210.710861,110.925499 210.818939,97.449135 210.927017,83.972771 
	C215.047195,75.089386 230.564499,72.222687 237.080490,79.750313 
	C237.348236,80.595062 237.542740,80.812645 237.781662,80.990509 
z"/>
<path fill="#50A898" opacity="1.000000" stroke="none" 
	d="
M114.019020,80.181557 
	C116.313919,79.006088 118.549522,76.989784 120.915550,76.822937 
	C126.561188,76.424820 132.278015,76.749840 137.944565,77.116005 
	C139.560883,77.220451 141.103409,78.467255 142.807800,79.904701 
	C142.903366,81.138092 142.870911,81.656998 142.636688,82.513046 
	C142.293121,83.830315 142.028259,84.810349 142.027390,85.790604 
	C142.001144,115.068550 141.987839,144.346527 142.036591,173.624420 
	C142.038971,175.055496 142.621063,176.485641 143.051636,178.108688 
	C143.345505,178.548508 143.548752,178.770386 143.779816,178.966766 
	C146.310852,184.099716 150.490829,186.243057 156.137711,186.051437 
	C160.623001,185.899246 165.172348,186.454742 169.593262,185.899643 
	C174.495178,185.284164 176.420990,187.969391 176.847168,191.790680 
	C177.360138,196.390244 177.540802,201.191956 176.735672,205.704605 
	C176.325745,208.002121 173.441650,209.858215 170.833527,211.963226 
	C157.682678,212.042694 145.374283,212.072769 132.789444,211.997330 
	C132.125717,211.827118 131.738419,211.762436 131.198059,211.390488 
	C127.692078,208.664276 124.339157,206.245316 120.900780,203.562134 
	C120.266296,202.840591 119.717270,202.383286 119.125061,201.931244 
	C119.081879,201.936523 119.075775,201.849747 119.025703,201.520294 
	C118.250397,200.500732 117.525162,199.810608 116.847763,199.082108 
	C116.895592,199.043732 116.970367,199.140945 116.822449,198.924545 
	C116.415756,198.475174 116.156982,198.242218 115.934616,198.019882 
	C115.971024,198.030518 115.948044,198.102814 115.897491,197.799927 
	C115.508438,197.000305 115.169922,196.503571 114.899788,196.001129 
	C114.968170,195.995392 114.978859,196.132217 114.833397,195.916107 
	C114.432220,195.466766 114.176514,195.233521 113.954666,195.007278 
	C113.988533,195.014282 113.969063,195.080658 113.915634,194.783569 
	C113.531174,193.996933 113.200157,193.507370 112.902969,193.041534 
	C112.936798,193.065262 112.886742,193.131027 112.923203,192.652466 
	C112.941551,155.085754 112.923454,117.997604 112.905350,80.909462 
	C112.905350,80.909462 112.998283,80.960487 113.157303,80.859467 
	C113.577103,80.598495 113.811340,80.406204 114.019020,80.181557 
z"/>
<path fill="#FAC49F" opacity="1.000000" stroke="none" 
	d="
M120.986237,203.826355 
	C124.339157,206.245316 127.692078,208.664276 130.704742,211.457825 
	C115.562965,211.914429 100.761436,211.996460 85.959915,212.078491 
	C74.294235,211.151382 67.592865,202.917053 62.351463,194.172974 
	C58.240349,187.314529 55.673145,179.197678 53.970383,171.305389 
	C51.312782,158.987427 52.093822,146.565216 57.033718,134.704514 
	C61.964958,122.864586 69.996452,113.246117 79.122963,104.481865 
	C82.054939,101.666267 85.926582,101.165359 89.625412,102.412537 
	C91.036278,102.888260 92.776230,104.975540 92.852905,106.409317 
	C93.441650,117.418747 93.855186,128.446945 93.919701,139.471680 
	C93.962212,146.736664 93.069572,154.005951 93.080498,161.272598 
	C93.092377,169.179504 93.579102,177.090500 94.030052,184.989929 
	C94.251854,188.875122 98.251801,191.708099 103.597649,191.974930 
	C105.918373,192.090775 108.251884,191.950668 111.066666,191.794312 
	C111.998085,192.151520 112.442413,192.641266 112.886749,193.131027 
	C112.886742,193.131027 112.936798,193.065262 112.938698,193.346451 
	C113.283417,194.111984 113.626236,194.596313 113.969063,195.080658 
	C113.969063,195.080658 113.988533,195.014282 114.028992,195.279312 
	C114.372581,195.740295 114.675720,195.936249 114.978859,196.132217 
	C114.978859,196.132217 114.968170,195.995392 114.916504,196.314941 
	C115.225906,197.123917 115.586975,197.613358 115.948044,198.102814 
	C115.948044,198.102814 115.971024,198.030518 116.016800,198.287994 
	C116.365173,198.743958 116.667770,198.942459 116.970367,199.140945 
	C116.970367,199.140945 116.895592,199.043732 116.933929,199.378113 
	C117.673439,200.424911 118.374611,201.137329 119.075775,201.849747 
	C119.075775,201.849747 119.081879,201.936523 119.226639,202.187881 
	C119.909668,202.901611 120.447952,203.363983 120.986237,203.826355 
z"/>
<path fill="#53A696" opacity="1.000000" stroke="none" 
	d="
M54.994137,10.137544 
	C64.958954,5.635493 75.746780,13.285398 76.474754,23.493555 
	C76.719490,26.925348 77.592850,30.557222 76.800064,33.755913 
	C75.816124,37.725842 74.370461,42.682812 71.400925,44.828747 
	C65.308525,49.231422 58.407833,54.809181 50.099079,47.072823 
	C48.537651,45.298557 47.219643,44.174709 45.901634,43.050861 
	C45.901634,43.050861 45.975723,43.031971 45.972015,42.641987 
	C45.313801,35.497684 44.659302,28.743368 44.004799,21.989052 
	C44.004799,21.989052 44.071262,21.511417 44.433212,21.153782 
	C47.168831,17.484953 49.542500,14.173756 51.916164,10.862560 
	C51.916164,10.862560 51.961159,10.930966 52.251511,10.927287 
	C53.359287,10.661586 54.176712,10.399565 54.994137,10.137544 
z"/>
<path fill="#519485" opacity="1.000000" stroke="none" 
	d="
M112.923203,192.652466 
	C112.442413,192.641266 111.998085,192.151520 111.363419,191.493484 
	C111.093018,171.206894 110.980263,151.088654 110.943642,130.970276 
	C110.916260,115.926682 110.954170,100.882675 111.064362,85.839600 
	C111.075546,84.312920 111.785255,82.791359 112.538086,81.088440 
	C112.923454,117.997604 112.941551,155.085754 112.923203,192.652466 
z"/>
<path fill="#FFD6D5" opacity="1.000000" stroke="none" 
	d="
M237.877243,82.979996 
	C237.877243,82.979996 238.004150,82.516876 238.020050,82.277313 
	C238.357162,83.517715 238.957138,84.997337 238.958923,86.477669 
	C239.006241,125.665825 238.991806,164.854050 238.715317,204.511810 
	C238.442734,204.981354 238.030396,204.920853 238.030396,204.920853 
	C238.030396,204.920853 237.992630,204.998978 238.001648,204.545258 
	C237.966202,163.721008 237.921722,123.350502 237.877243,82.979996 
z"/>
<path fill="#7AB6A7" opacity="1.000000" stroke="none" 
	d="
M143.870789,178.507141 
	C143.548752,178.770386 143.345505,178.548508 143.073410,177.649780 
	C142.930649,145.390915 142.884552,113.783409 142.838455,82.175903 
	C142.870911,81.656998 142.903366,81.138092 142.985352,80.232269 
	C143.362366,81.015068 143.974518,82.184486 143.975769,83.354561 
	C144.009308,114.918839 143.980255,146.483185 143.870789,178.507141 
z"/>
<path fill="#FFD1C4" opacity="1.000000" stroke="none" 
	d="
M209.944611,152.424744 
	C210.281158,153.497559 211.011414,155.040527 211.016586,156.585938 
	C211.070862,172.748093 211.008926,188.910614 210.957214,205.541046 
	C210.623535,204.513351 210.046814,203.018707 210.040848,201.521805 
	C209.976166,185.313416 210.001175,169.104660 209.944611,152.424744 
z"/>
<path fill="#F0AC99" opacity="1.000000" stroke="none" 
	d="
M157.360748,151.879639 
	C157.828049,151.509766 158.767685,150.998352 159.708191,150.996811 
	C175.631989,150.970673 191.555923,151.002075 207.479736,151.052612 
	C208.115417,151.054626 208.750076,151.371658 209.709991,151.807831 
	C192.634338,152.040955 175.233917,152.008163 157.360748,151.879639 
z"/>
<path fill="#FEF0E1" opacity="1.000000" stroke="none" 
	d="
M86.168472,212.461060 
	C100.761436,211.996460 115.562965,211.914429 130.857803,211.765076 
	C131.738419,211.762436 132.125717,211.827118 132.767395,212.179306 
	C133.021759,212.466812 133.007538,212.833206 133.007538,212.833206 
	C117.464035,212.836670 101.920525,212.840149 86.168472,212.461060 
z"/>
<path fill="#FFD2C4" opacity="1.000000" stroke="none" 
	d="
M210.543365,84.179253 
	C210.818939,97.449135 210.710861,110.925499 210.285461,124.675034 
	C210.031998,111.427376 210.095856,97.906555 210.543365,84.179253 
z"/>
<path fill="#5F9A8C" opacity="1.000000" stroke="none" 
	d="
M43.657494,22.185434 
	C44.659302,28.743368 45.313801,35.497684 45.950951,42.673889 
	C41.168453,36.683876 40.890381,29.703690 43.657494,22.185434 
z"/>
<path fill="#D8F1EB" opacity="1.000000" stroke="none" 
	d="
M133.469391,212.910675 
	C133.007538,212.833206 133.021759,212.466812 133.043823,212.284836 
	C145.374283,212.072769 157.682678,212.042694 170.453552,211.988770 
	C169.478271,212.309433 168.042648,212.941925 166.602432,212.952591 
	C155.712540,213.033096 144.821762,212.991577 133.469391,212.910675 
z"/>
<path fill="#5F9A8C" opacity="1.000000" stroke="none" 
	d="
M51.565529,10.912618 
	C49.542500,14.173756 47.168831,17.484953 44.490650,20.919605 
	C44.568398,16.315826 47.552185,13.402557 51.565529,10.912618 
z"/>
<path fill="#5F9A8C" opacity="1.000000" stroke="none" 
	d="
M45.908241,43.409706 
	C47.219643,44.174709 48.537651,45.298557 49.916107,46.766087 
	C48.622650,45.996029 47.268749,44.882290 45.908241,43.409706 
z"/>
<path fill="#5F9A8C" opacity="1.000000" stroke="none" 
	d="
M54.642174,10.056925 
	C54.176712,10.399565 53.359287,10.661586 52.211441,10.918900 
	C52.684082,10.601563 53.487148,10.288935 54.642174,10.056925 
z"/>
<path fill="#CB684E" opacity="1.000000" stroke="none" 
	d="
M238.027954,205.221649 
	C238.030396,204.920853 238.442734,204.981354 238.650574,204.974472 
	C238.765030,205.282669 238.671661,205.597763 238.331314,206.016998 
	C238.064713,205.921600 238.045120,205.722015 238.027954,205.221649 
z"/>
<path fill="#519485" opacity="1.000000" stroke="none" 
	d="
M113.757187,80.143440 
	C113.811340,80.406204 113.577103,80.598495 113.106094,80.846680 
	C113.095695,80.658379 113.295525,80.381851 113.757187,80.143440 
z"/>
<path fill="#CB684E" opacity="1.000000" stroke="none" 
	d="
M237.829590,80.738419 
	C237.542740,80.812645 237.348236,80.595062 237.131226,80.128571 
	C237.335373,80.108353 237.606445,80.297340 237.829590,80.738419 
z"/>
<path fill="#CB684E" opacity="1.000000" stroke="none" 
	d="
M237.661499,83.335556 
	C237.921722,123.350502 237.966202,163.721008 238.040649,204.564270 
	C237.706314,203.459686 237.026352,201.882843 237.023911,200.304962 
	C236.965454,162.577423 236.975555,124.849770 237.000153,87.122147 
	C237.000900,85.978371 237.290710,84.834793 237.661499,83.335556 
z"/>
<path fill="#469A89" opacity="1.000000" stroke="none" 
	d="
M142.636688,82.513046 
	C142.884552,113.783409 142.930649,145.390915 142.954971,177.457306 
	C142.621063,176.485641 142.038971,175.055496 142.036591,173.624420 
	C141.987839,144.346527 142.001144,115.068550 142.027390,85.790604 
	C142.028259,84.810349 142.293121,83.830315 142.636688,82.513046 
z"/>
<path fill="#519485" opacity="1.000000" stroke="none" 
	d="
M119.025711,201.520294 
	C118.374611,201.137329 117.673439,200.424911 116.886108,199.416504 
	C117.525162,199.810608 118.250397,200.500732 119.025711,201.520294 
z"/>
<path fill="#519485" opacity="1.000000" stroke="none" 
	d="
M120.900780,203.562134 
	C120.447952,203.363983 119.909668,202.901611 119.269821,202.182602 
	C119.717270,202.383286 120.266296,202.840591 120.900780,203.562134 
z"/>
<path fill="#519485" opacity="1.000000" stroke="none" 
	d="
M115.897491,197.799927 
	C115.586975,197.613358 115.225906,197.123917 114.848114,196.320663 
	C115.169922,196.503571 115.508438,197.000305 115.897491,197.799927 
z"/>
<path fill="#519485" opacity="1.000000" stroke="none" 
	d="
M113.915634,194.783569 
	C113.626236,194.596313 113.283417,194.111984 112.904861,193.322723 
	C113.200157,193.507370 113.531174,193.996933 113.915634,194.783569 
z"/>
<path fill="#519485" opacity="1.000000" stroke="none" 
	d="
M116.822449,198.924545 
	C116.667770,198.942459 116.365173,198.743958 115.980400,198.277344 
	C116.156982,198.242218 116.415756,198.475174 116.822449,198.924545 
z"/>
<path fill="#519485" opacity="1.000000" stroke="none" 
	d="
M114.833397,195.916107 
	C114.675720,195.936249 114.372581,195.740295 113.995117,195.272308 
	C114.176514,195.233521 114.432220,195.466766 114.833397,195.916107 
z"/>
</svg>